<?xml version="1.0" encoding="UTF-8"?><svg xmlns="http://www.w3.org/2000/svg" xmlns:xlink="http://www.w3.org/1999/xlink" width="44px" height="44px" viewBox="0 0 44 44" version="1.1"><defs><linearGradient id="linear0" gradientUnits="userSpaceOnUse" x1="512" y1="0" x2="512" y2="1024" gradientTransform="matrix(0.0429688,0,0,0.0429688,0,0)"><stop offset="0" style="stop-color:rgb(38.431373%,61.176471%,90.196078%);stop-opacity:1;"/><stop offset="0.5" style="stop-color:rgb(24.705882%,47.45098%,81.176471%);stop-opacity:1;"/><stop offset="1" style="stop-color:rgb(18.039216%,45.490196%,70.980392%);stop-opacity:1;"/></linearGradient></defs><g id="surface1"><path style=" stroke:none;fill-rule:nonzero;fill:url(#linear0);" d="M 22 0 C 34.148438 0 44 9.851562 44 22 C 44 34.148438 34.148438 44 22 44 C 9.851562 44 0 34.148438 0 22 C 0 9.851562 9.851562 0 22 0 Z M 22 0 "/><path style=" stroke:none;fill-rule:evenodd;fill:rgb(100%,100%,100%);fill-opacity:1;" d="M 22 1.804688 C 10.847656 1.804688 1.804688 10.847656 1.804688 22 C 1.804688 33.152344 10.847656 42.195312 22 42.195312 C 33.152344 42.195312 42.195312 33.152344 42.195312 22 C 42.195312 10.847656 33.152344 1.804688 22 1.804688 M 13.496094 36.730469 L 11.027344 37.292969 C 12.035156 38.015625 13.113281 38.640625 14.246094 39.152344 Z M 15.71875 39.261719 L 14.773438 36.203125 L 17.488281 34.394531 L 18.40625 37.527344 Z M 14.871094 32.535156 L 14.738281 34.574219 L 16.441406 33.441406 C 15.894531 33.175781 15.371094 32.875 14.871094 32.535156 M 10.191406 36.070312 L 10.351562 32.875 L 13.519531 32.105469 L 13.3125 35.359375 Z M 8.847656 35.460938 L 8.972656 32.933594 L 6.457031 32.617188 C 7.160156 33.640625 7.957031 34.59375 8.847656 35.460938 M 12.863281 30.851562 L 10.875 31.332031 L 11.699219 29.460938 C 12.054688 29.949219 12.445312 30.414062 12.863281 30.851562 M 7.332031 28.234375 L 6.089844 31.183594 L 9.265625 31.582031 L 10.574219 28.597656 Z M 6.019531 27.816406 L 5.035156 30.15625 C 4.492188 29.035156 4.066406 27.863281 3.761719 26.660156 Z M 9.765625 25.488281 L 8.355469 26.964844 L 10.386719 27.191406 C 10.136719 26.640625 9.929688 26.070312 9.765625 25.488281 M 3.910156 25.191406 L 6.085938 22.84375 L 9.007812 24.289062 L 6.757812 26.648438 Z M 3.179688 22 C 3.179688 22.625 3.210938 23.246094 3.269531 23.855469 L 4.992188 22 L 3.269531 20.144531 C 3.210938 20.761719 3.179688 21.378906 3.179688 22 M 9.3125 21.09375 C 9.292969 21.394531 9.28125 21.699219 9.28125 22 C 9.28125 22.304688 9.292969 22.609375 9.3125 22.90625 L 7.480469 22 Z M 6.757812 17.351562 L 3.910156 18.808594 L 6.085938 21.15625 L 9.007812 19.710938 Z M 8.355469 17.035156 L 10.386719 16.808594 C 10.136719 17.359375 9.929688 17.929688 9.765625 18.511719 Z M 3.761719 17.339844 L 6.019531 16.183594 L 5.035156 13.84375 C 4.492188 14.964844 4.066406 16.136719 3.761719 17.339844 Z M 6.089844 12.816406 L 9.265625 12.417969 L 10.574219 15.402344 L 7.332031 15.765625 Z M 12.863281 13.148438 L 10.875 12.667969 L 11.699219 14.539062 C 12.054688 14.050781 12.445312 13.585938 12.863281 13.148438 M 10.191406 7.929688 L 13.3125 8.640625 L 13.519531 11.894531 L 10.351562 11.125 Z M 6.457031 11.382812 L 8.972656 11.066406 L 8.847656 8.539062 C 7.957031 9.40625 7.160156 10.359375 6.457031 11.382812 M 14.738281 9.425781 L 16.441406 10.558594 C 15.894531 10.824219 15.371094 11.125 14.871094 11.464844 Z M 15.71875 4.738281 L 14.773438 7.796875 L 17.488281 9.605469 L 18.40625 6.472656 Z M 13.496094 7.269531 L 11.027344 6.707031 C 12.035156 5.984375 13.113281 5.359375 14.246094 4.847656 Z M 20.691406 9.347656 L 19.480469 7.699219 L 18.90625 9.660156 C 19.492188 9.515625 20.089844 9.410156 20.691406 9.347656 M 22 3.628906 L 23.933594 6.179688 L 22 8.808594 L 20.066406 6.179688 Z M 16.914062 3.875 L 19.046875 5.25 L 20.574219 3.234375 C 19.335938 3.324219 18.109375 3.539062 16.914062 3.875 Z M 24.519531 7.699219 L 25.09375 9.660156 C 24.507812 9.515625 23.910156 9.410156 23.308594 9.347656 Z M 29.226562 7.796875 L 28.28125 4.738281 L 25.59375 6.472656 L 26.511719 9.605469 Z M 24.953125 5.25 L 23.425781 3.234375 C 24.664062 3.324219 25.890625 3.539062 27.085938 3.875 Z M 29.128906 11.464844 L 29.261719 9.425781 L 27.558594 10.558594 C 28.105469 10.824219 28.628906 11.125 29.128906 11.464844 M 33.808594 7.929688 L 33.648438 11.125 L 30.480469 11.894531 L 30.6875 8.640625 Z M 29.753906 4.847656 L 30.503906 7.269531 L 32.972656 6.707031 C 31.964844 5.984375 30.886719 5.359375 29.753906 4.847656 M 33.125 12.667969 L 32.300781 14.539062 C 31.945312 14.050781 31.554688 13.585938 31.136719 13.148438 Z M 36.667969 15.765625 L 37.910156 12.816406 L 34.734375 12.417969 L 33.425781 15.402344 Z M 35.027344 11.066406 L 35.152344 8.539062 C 36.042969 9.40625 36.839844 10.359375 37.542969 11.382812 Z M 34.234375 18.511719 L 35.644531 17.035156 L 33.613281 16.808594 C 33.863281 17.359375 34.070312 17.929688 34.234375 18.511719 M 40.089844 18.808594 L 37.914062 21.15625 L 34.992188 19.710938 L 37.242188 17.351562 Z M 38.964844 13.84375 L 37.980469 16.183594 L 40.238281 17.339844 C 39.933594 16.136719 39.507812 14.964844 38.964844 13.84375 M 34.6875 22.90625 C 34.707031 22.609375 34.71875 22.304688 34.71875 22 C 34.71875 21.695312 34.707031 21.390625 34.6875 21.09375 L 36.519531 22 Z M 37.242188 26.652344 L 40.089844 25.191406 L 37.914062 22.84375 L 34.992188 24.289062 Z M 40.730469 20.144531 C 40.789062 20.761719 40.820312 21.378906 40.820312 22 C 40.820312 22.625 40.789062 23.246094 40.730469 23.855469 L 39.007812 22 Z M 40.238281 26.660156 L 37.980469 27.816406 L 38.964844 30.15625 C 39.507812 29.035156 39.933594 27.863281 40.238281 26.660156 M 37.910156 31.183594 L 34.734375 31.582031 L 33.425781 28.597656 L 36.667969 28.234375 Z M 30.6875 35.359375 L 33.808594 36.070312 L 33.648438 32.875 L 30.480469 32.105469 Z M 28.28125 39.261719 L 25.59375 37.527344 L 26.511719 34.394531 L 29.226562 36.203125 Z M 20.066406 37.820312 L 22 40.371094 L 23.933594 37.820312 L 22 35.191406 Z M 19.480469 36.300781 L 18.90625 34.339844 C 19.492188 34.484375 20.089844 34.589844 20.691406 34.652344 Z M 23.308594 34.652344 L 24.519531 36.300781 L 25.09375 34.339844 C 24.507812 34.484375 23.910156 34.589844 23.308594 34.652344 M 29.261719 34.574219 L 27.558594 33.441406 C 28.105469 33.175781 28.628906 32.875 29.128906 32.535156 Z M 31.136719 30.851562 L 33.125 31.332031 L 32.300781 29.460938 C 31.945312 29.949219 31.554688 30.414062 31.136719 30.851562 M 35.644531 26.964844 L 33.613281 27.191406 C 33.863281 26.640625 34.070312 26.070312 34.234375 25.488281 Z M 37.542969 32.617188 L 35.027344 32.933594 L 35.152344 35.460938 C 36.042969 34.59375 36.839844 33.640625 37.542969 32.617188 M 29.753906 39.152344 L 30.503906 36.730469 L 32.972656 37.292969 C 31.964844 38.015625 30.886719 38.640625 29.753906 39.152344 M 24.953125 38.75 L 23.425781 40.765625 C 24.664062 40.675781 25.890625 40.460938 27.085938 40.125 Z M 16.914062 40.125 L 19.046875 38.75 L 20.574219 40.765625 C 19.335938 40.675781 18.109375 40.460938 16.914062 40.125 M 22 10.65625 C 15.734375 10.65625 10.65625 15.734375 10.65625 22 C 10.65625 28.265625 15.734375 33.34375 22 33.34375 C 28.265625 33.34375 33.34375 28.265625 33.34375 22 C 33.34375 15.734375 28.265625 10.65625 22 10.65625 "/></g></svg>
