<?xml version="1.0" encoding="UTF-8"?><svg xmlns="http://www.w3.org/2000/svg" xmlns:xlink="http://www.w3.org/1999/xlink" width="51px" height="51px" viewBox="0 0 51 51" version="1.1"><defs><linearGradient id="linear0" gradientUnits="userSpaceOnUse" x1="512" y1="67" x2="512" y2="957" gradientTransform="matrix(0.0498047,0,0,0.0498047,0,0)"><stop offset="0" style="stop-color:rgb(38.431373%,61.176471%,90.196078%);stop-opacity:1;"/><stop offset="0.5" style="stop-color:rgb(24.705882%,47.45098%,81.176471%);stop-opacity:1;"/><stop offset="1" style="stop-color:rgb(18.039216%,45.490196%,70.980392%);stop-opacity:1;"/></linearGradient></defs><g id="surface1"><rect x="0" y="0" width="51" height="51" style="fill:rgb(100%,100%,100%);fill-opacity:1;stroke:none;"/><path style=" stroke:none;fill-rule:nonzero;fill:url(#linear0);" d="M 47.664062 25.5 C 47.664062 13.257812 37.742188 3.335938 25.5 3.335938 C 13.257812 3.335938 3.335938 13.257812 3.335938 25.5 C 3.335938 37.742188 13.257812 47.664062 25.5 47.664062 C 37.742188 47.664062 47.664062 37.742188 47.664062 25.5 Z M 47.664062 25.5 "/><path style=" stroke:none;fill-rule:evenodd;fill:rgb(100%,100%,100%);fill-opacity:1;" d="M 25.5 5.179688 C 14.277344 5.179688 5.179688 14.277344 5.179688 25.5 C 5.179688 36.722656 14.277344 45.820312 25.5 45.820312 C 36.722656 45.820312 45.820312 36.722656 45.820312 25.5 C 45.820312 14.277344 36.722656 5.179688 25.5 5.179688 M 16.945312 40.320312 L 14.457031 40.886719 C 15.472656 41.617188 16.558594 42.242188 17.695312 42.757812 Z M 19.179688 42.867188 L 18.226562 39.792969 L 20.960938 37.972656 L 21.882812 41.121094 Z M 18.328125 36.097656 L 18.195312 38.152344 L 19.90625 37.011719 C 19.359375 36.746094 18.832031 36.441406 18.328125 36.097656 M 13.621094 39.660156 L 13.777344 36.445312 L 16.96875 35.667969 L 16.757812 38.945312 Z M 12.265625 39.042969 L 12.390625 36.5 L 9.863281 36.183594 C 10.566406 37.210938 11.371094 38.171875 12.265625 39.042969 M 16.308594 34.40625 L 14.308594 34.890625 L 15.132812 33.007812 C 15.492188 33.5 15.882812 33.96875 16.308594 34.40625 M 10.742188 31.773438 L 9.492188 34.742188 L 12.6875 35.144531 L 14.003906 32.136719 Z M 9.417969 31.351562 L 8.429688 33.707031 C 7.886719 32.578125 7.457031 31.398438 7.148438 30.1875 Z M 13.191406 29.011719 L 11.769531 30.496094 L 13.8125 30.722656 C 13.566406 30.167969 13.355469 29.597656 13.191406 29.011719 M 7.296875 28.710938 L 9.484375 26.347656 L 12.429688 27.804688 L 10.160156 30.179688 Z M 6.5625 25.5 C 6.5625 26.128906 6.59375 26.753906 6.652344 27.367188 L 8.386719 25.5 L 6.652344 23.632812 C 6.59375 24.253906 6.5625 24.875 6.5625 25.5 M 12.734375 24.585938 C 12.691406 25.195312 12.691406 25.804688 12.734375 26.414062 L 10.890625 25.5 Z M 10.160156 20.820312 L 7.296875 22.289062 L 9.484375 24.652344 L 12.429688 23.195312 Z M 11.769531 20.503906 L 13.8125 20.277344 C 13.566406 20.832031 13.355469 21.402344 13.191406 21.988281 Z M 7.148438 20.8125 L 9.417969 19.648438 L 8.429688 17.292969 C 7.886719 18.421875 7.457031 19.601562 7.148438 20.8125 M 9.492188 16.257812 L 12.6875 15.855469 L 14.003906 18.863281 L 10.742188 19.226562 Z M 16.308594 16.59375 L 14.308594 16.109375 L 15.132812 17.992188 C 15.492188 17.5 15.882812 17.03125 16.308594 16.59375 M 13.621094 11.339844 L 16.757812 12.054688 L 16.96875 15.332031 L 13.777344 14.554688 Z M 9.863281 14.816406 L 12.390625 14.5 L 12.265625 11.957031 C 11.371094 12.828125 10.566406 13.789062 9.863281 14.816406 M 18.195312 12.847656 L 19.90625 13.988281 C 19.359375 14.253906 18.832031 14.558594 18.328125 14.902344 Z M 19.179688 8.132812 L 18.226562 11.207031 L 20.960938 13.027344 L 21.882812 9.878906 Z M 16.945312 10.679688 L 14.457031 10.113281 C 15.472656 9.382812 16.558594 8.757812 17.695312 8.242188 Z M 24.183594 12.769531 L 22.964844 11.113281 L 22.386719 13.085938 C 22.976562 12.9375 23.578125 12.832031 24.183594 12.769531 M 25.5 7.015625 L 27.445312 9.582031 L 25.5 12.226562 L 23.554688 9.582031 Z M 20.382812 7.261719 L 22.527344 8.648438 L 24.066406 6.617188 C 22.820312 6.710938 21.585938 6.925781 20.382812 7.261719 M 28.035156 11.113281 L 28.613281 13.085938 C 28.023438 12.9375 27.421875 12.832031 26.816406 12.769531 Z M 32.773438 11.207031 L 31.820312 8.132812 L 29.117188 9.878906 L 30.039062 13.027344 Z M 28.472656 8.648438 L 26.933594 6.617188 C 28.179688 6.710938 29.414062 6.925781 30.617188 7.261719 Z M 32.671875 14.902344 L 32.804688 12.847656 L 31.09375 13.988281 C 31.640625 14.253906 32.167969 14.558594 32.671875 14.902344 M 37.382812 11.339844 L 37.222656 14.554688 L 34.03125 15.332031 L 34.242188 12.054688 Z M 33.304688 8.242188 L 34.054688 10.679688 L 36.542969 10.113281 C 35.527344 9.382812 34.441406 8.757812 33.304688 8.242188 M 36.691406 16.109375 L 35.867188 17.992188 C 35.507812 17.5 35.117188 17.03125 34.691406 16.59375 Z M 40.257812 19.226562 L 41.507812 16.257812 L 38.3125 15.855469 L 36.996094 18.863281 Z M 38.609375 14.5 L 38.734375 11.957031 C 39.628906 12.828125 40.433594 13.789062 41.136719 14.816406 Z M 37.808594 21.988281 L 39.230469 20.503906 L 37.1875 20.277344 C 37.433594 20.832031 37.644531 21.402344 37.808594 21.988281 M 43.703125 22.289062 L 41.515625 24.652344 L 38.570312 23.195312 L 40.839844 20.820312 Z M 42.570312 17.292969 L 41.582031 19.648438 L 43.851562 20.8125 C 43.542969 19.601562 43.113281 18.421875 42.570312 17.292969 M 38.265625 26.414062 C 38.308594 25.804688 38.308594 25.195312 38.265625 24.585938 L 40.109375 25.5 Z M 40.839844 30.179688 L 43.703125 28.710938 L 41.515625 26.347656 L 38.570312 27.804688 Z M 44.347656 23.632812 C 44.40625 24.253906 44.4375 24.875 44.4375 25.5 C 44.4375 26.128906 44.40625 26.753906 44.347656 27.367188 L 42.613281 25.5 Z M 43.851562 30.1875 L 41.582031 31.351562 L 42.570312 33.707031 C 43.113281 32.578125 43.542969 31.398438 43.851562 30.1875 M 41.507812 34.742188 L 38.3125 35.144531 L 36.996094 32.136719 L 40.257812 31.773438 Z M 34.242188 38.945312 L 37.382812 39.660156 L 37.222656 36.445312 L 34.03125 35.667969 Z M 31.820312 42.867188 L 29.117188 41.121094 L 30.039062 37.972656 L 32.773438 39.792969 Z M 23.554688 41.417969 L 25.5 43.984375 L 27.445312 41.417969 L 25.5 38.773438 Z M 22.964844 39.886719 L 22.386719 37.914062 C 22.976562 38.0625 23.578125 38.167969 24.183594 38.230469 Z M 26.816406 38.230469 L 28.035156 39.886719 L 28.613281 37.914062 C 28.023438 38.0625 27.421875 38.167969 26.816406 38.230469 M 32.804688 38.152344 L 31.09375 37.011719 C 31.640625 36.746094 32.167969 36.441406 32.671875 36.097656 Z M 34.691406 34.40625 L 36.691406 34.890625 L 35.867188 33.007812 C 35.507812 33.5 35.117188 33.96875 34.691406 34.40625 M 39.230469 30.496094 L 37.1875 30.722656 C 37.433594 30.167969 37.644531 29.597656 37.808594 29.011719 Z M 41.136719 36.183594 L 38.609375 36.5 L 38.734375 39.042969 C 39.628906 38.171875 40.433594 37.210938 41.136719 36.183594 M 33.304688 42.757812 L 34.054688 40.320312 L 36.542969 40.886719 C 35.527344 41.617188 34.441406 42.242188 33.304688 42.757812 M 28.472656 42.351562 L 26.933594 44.382812 C 28.179688 44.289062 29.414062 44.074219 30.617188 43.738281 Z M 20.382812 43.738281 L 22.527344 42.351562 L 24.066406 44.382812 C 22.820312 44.289062 21.585938 44.074219 20.382812 43.738281 M 25.5 14.085938 C 19.195312 14.085938 14.085938 19.195312 14.085938 25.5 C 14.085938 31.804688 19.195312 36.914062 25.5 36.914062 C 31.804688 36.914062 36.914062 31.804688 36.914062 25.5 C 36.914062 19.195312 31.804688 14.085938 25.5 14.085938 "/></g></svg>
