<svg xmlns="http://www.w3.org/2000/svg" width="28" height="28" fill="none"><rect width="28" height="28" fill="#1EC160" rx="8"/><path fill="#fff" fill-rule="evenodd" d="M14 5.55a.95.95 0 0 1 .95.95v7.599l2.503-2.502a.95.95 0 0 1 1.343 1.345l-4.124 4.12a.95.95 0 0 1-1.343 0l-4.125-4.12a.95.95 0 0 1 1.343-1.345L13.05 14.1V6.5a.95.95 0 0 1 .95-.95M7.4 17.253a.95.95 0 0 1 .95.95v1.648a.7.7 0 0 0 .7.699h9.9a.7.7 0 0 0 .7-.699v-1.648a.95.95 0 1 1 1.9 0v1.648a2.597 2.597 0 0 1-2.6 2.599h-9.9a2.6 2.6 0 0 1-2.6-2.599v-1.648a.95.95 0 0 1 .95-.95" clip-rule="evenodd"/></svg>