<svg xmlns="http://www.w3.org/2000/svg" width="28" height="28" fill="none"><rect width="28" height="28" fill="#F90" rx="8"/><path stroke="#F90" stroke-linecap="round" stroke-width="1.8" d="M11 14h4.5M11 10h6m-6 8h3"/><path fill="#fff" d="M20.75 15.748c0-.964-.2-1.92-.578-2.8a7.6 7.6 0 0 0-.825-1.42l-.467-.617a.01.01 0 0 0-.018 0l-.4.667a7 7 0 0 1-.696.955 1.054 1.054 0 0 1-1.519.084 1.1 1.1 0 0 1-.28-.412 1.2 1.2 0 0 1-.079-.5c.075-1.212-.308-2.578-1.063-4.043a7.4 7.4 0 0 0-1.447-1.964l-.729-.695a.011.011 0 0 0-.018.006l-.152 1.007q-.073.485-.238.947a7.54 7.54 0 0 1-2.38 3.327 6.9 6.9 0 0 0-1.92 2.408 7 7 0 0 0-.691 2.958c0 .94.183 1.944.531 2.786a7 7 0 0 0 1.441 2.185A6.63 6.63 0 0 0 14 22.654a6.63 6.63 0 0 0 4.777-2.027 6.95 6.95 0 0 0 1.973-4.88"/></svg>