<svg xmlns="http://www.w3.org/2000/svg" width="28" height="28" fill="none"><rect width="28" height="28" fill="url(#a)" rx="8"/><path fill="#fff" d="m6.898 14.771 7.41-10.14c.308-.42.974-.148.898.368l-.882 5.998a.5.5 0 0 0 .43.568l5.704.736a.9.9 0 0 1 .601 1.437l-7.361 9.686c-.315.413-.973.133-.892-.38l.865-5.537a.5.5 0 0 0-.43-.573l-5.732-.74a.9.9 0 0 1-.611-1.423"/><path fill="#fff" fill-opacity=".6" d="M19.407 6.695c.007.062.044.105.093.105.05 0 .086-.043.095-.105.136-1.252.282-1.445 1.315-1.582.054-.007.09-.052.09-.114 0-.06-.036-.105-.09-.112-1.033-.137-1.18-.33-1.315-1.584-.01-.062-.046-.103-.095-.103-.05 0-.086.041-.093.103-.136 1.254-.284 1.447-1.315 1.584-.056.007-.092.052-.092.112 0 .062.036.107.091.114 1.03.163 1.173.33 1.316 1.582m3 4c.007.062.044.105.093.105.05 0 .086-.043.095-.105.136-1.252.282-1.445 1.315-1.582.054-.007.09-.052.09-.114 0-.06-.036-.105-.09-.112-1.033-.137-1.18-.33-1.315-1.584-.01-.062-.046-.103-.095-.103-.05 0-.086.041-.093.103-.136 1.254-.284 1.447-1.315 1.584-.056.007-.092.052-.092.112 0 .062.036.107.091.114 1.03.163 1.173.33 1.316 1.582m-15 12.8c.007.062.043.105.093.105s.086-.043.095-.105c.136-1.252.282-1.445 1.315-1.582.054-.007.09-.052.09-.114 0-.06-.036-.105-.09-.112-1.033-.137-1.18-.33-1.315-1.584C7.585 20.041 7.55 20 7.5 20s-.086.041-.093.103c-.136 1.254-.284 1.447-1.315 1.584-.056.007-.092.052-.092.112 0 .062.036.107.091.114 1.03.163 1.173.33 1.316 1.582"/><defs><linearGradient id="a" x1="14" x2="14" y1="0" y2="28" gradientUnits="userSpaceOnUse"><stop stop-color="#35DEDB"/><stop offset="1" stop-color="#08C"/></linearGradient></defs></svg>