<svg xmlns="http://www.w3.org/2000/svg" width="28" height="28" fill="none"><rect width="28" height="28" fill="#FFC700" rx="8"/><path fill="#fff" d="M14 5a6.3 6.3 0 0 0-6.3 6.3 6.3 6.3 0 0 0 2.7 5.166V18.5a.9.9 0 0 0 .9.9h5.4a.9.9 0 0 0 .9-.9v-2.034A6.297 6.297 0 0 0 14 5m-2.7 17.1a.9.9 0 0 0 .9.9h3.6a.9.9 0 0 0 .9-.9v-.9h-5.4z"/><circle cx="14" cy="14" r="9.5" fill="#fff"/><path fill="#FFC700" d="M11.5 16.113v-4.226c0-.942 0-1.414.197-1.679a1 1 0 0 1 .723-.4c.33-.027.729.223 1.528.722l3.381 2.113c.72.45 1.08.675 1.203.963a1 1 0 0 1 0 .788c-.123.288-.483.513-1.203.963l-3.381 2.113c-.799.5-1.199.749-1.528.723a1 1 0 0 1-.723-.401c-.197-.266-.197-.737-.197-1.679"/></svg>